<svg xmlns="http://www.w3.org/2000/svg" xmlns:xlink="http://www.w3.org/1999/xlink" width="521" height="558" viewBox="0 0 521 558"><defs><clipPath id="clip-path"><rect id="Rectangle_484" data-name="Rectangle 484" width="35.259" height="33.554" fill="#fff"></rect></clipPath></defs><g id="Group_1646" data-name="Group 1646" transform="translate(-991 -831)"><g id="Ellipse_46" data-name="Ellipse 46" transform="translate(1007 864)" fill="none" stroke="#2d8cff" stroke-width="3" stroke-dasharray="10" opacity="0.3"><circle cx="232" cy="232" r="232" stroke="none"></circle><circle cx="232" cy="232" r="230.5" fill="none"></circle></g><text id="MEETINGS" transform="translate(1250 913)" font-size="14" font-family="Helvetica"><tspan x="-36" y="0">MEETINGS</tspan></text><text id="CHAT" transform="translate(1111 956)" font-size="14" font-family="Helvetica"><tspan x="-18" y="0">CHAT</tspan></text><text id="ZOOM_ROOMS" data-name="ZOOMROOMS" transform="translate(1021 1084)" font-size="14" font-family="Helvetica"><tspan x="-20" y="0">ZOOM</tspan><tspan x="-26" y="18">ROOMS</tspan></text><text id="ZOOM_EVENTS_WEBINARS" data-name="ZOOMEVENTS &amp;WEBINARS" transform="translate(1037 1256)" font-size="14" font-family="Helvetica"><tspan x="-20" y="0">ZOOM</tspan><tspan x="-34" y="18">EVENTS &amp;</tspan><tspan x="-37" y="36">WEBINARS</tspan></text><text id="ZOOM_APP_MARKETPLACE" data-name="ZOOM APPMARKETPLACE" transform="translate(1164 1368)" font-size="14" font-family="Helvetica"><tspan x="-36" y="0">ZOOM APP</tspan><tspan x="-52" y="18">MARKETPLACE</tspan></text><text id="ONZOOM" transform="translate(1324 1368)" font-size="14" font-family="Helvetica"><tspan x="-31" y="0">ONZOOM</tspan></text><g id="Group_1641" data-name="Group 1641"><circle id="Ellipse_44" data-name="Ellipse 44" cx="30.5" cy="30.5" r="30.5" transform="translate(1294 1287)" fill="#2d8cff"></circle><text id="on" transform="translate(1324 1326)" fill="#fff" font-size="29" font-family="Helvetica-Bold, Helvetica" font-weight="700"><tspan x="-17" y="0">on</tspan></text></g><text id="ZOOM_FOR_HOME" data-name="ZOOM FORHOME" transform="translate(1447 1256)" font-size="14" font-family="Helvetica"><tspan x="-37" y="0">ZOOM FOR</tspan><tspan x="-21" y="18">HOME</tspan></text><text id="PHONE" transform="translate(1393 956)" font-size="14" font-family="Helvetica"><tspan x="-24" y="0">PHONE</tspan></text><text id="DEVELOPER_PLATFORM_APIS_SDKS" data-name="DEVELOPERPLATFORMAPIS &amp; SDKS" transform="translate(1468 1084)" font-size="14" font-family="Helvetica"><tspan x="-42" y="0">DEVELOPER</tspan><tspan x="-37" y="18">PLATFORM</tspan><tspan x="-43" y="36">APIS &amp; SDKS</tspan></text><g id="Group_1636" data-name="Group 1636"><circle id="Ellipse_36" data-name="Ellipse 36" cx="124.5" cy="124.5" r="124.5" transform="translate(1115 972)" fill="#2d8cff"></circle><path id="zoom-communications-logo_copy" data-name="zoom-communications-logo copy" d="M87.793,7.968a5.229,5.229,0,0,1,.592,2.43l.059,1.212v8.478L88.5,21.3a3.722,3.722,0,0,0,3.579,3.572l1.207.06V11.611l.06-1.212a5.308,5.308,0,0,1,.6-2.44,4.842,4.842,0,0,1,8.383.015,5.334,5.334,0,0,1,.59,2.425l.06,1.209v8.481l.06,1.214a3.706,3.706,0,0,0,3.579,3.572l1.207.06V10.4a9.69,9.69,0,0,0-16.96-6.41,9.683,9.683,0,0,0-12.7-1.619A6.684,6.684,0,0,0,73.9.7V24.934l1.212-.06A3.65,3.65,0,0,0,78.688,21.3l.065-1.214V11.611l.06-1.212A5.313,5.313,0,0,1,79.4,7.963a4.848,4.848,0,0,1,8.388,0ZM4.846,24.875l1.212.059H24.231l-.06-1.209A3.75,3.75,0,0,0,20.6,20.148l-1.212-.06H8.483L23.018,5.548l-.06-1.207A3.664,3.664,0,0,0,19.385.763L18.173.708,0,.7.06,1.916A3.757,3.757,0,0,0,3.632,5.489l1.214.06h10.9L1.212,20.089l.06,1.212a3.7,3.7,0,0,0,3.573,3.572ZM69.147,4.25A12.122,12.122,0,1,1,60.571.7,12.115,12.115,0,0,1,69.147,4.25ZM65.719,7.681a7.27,7.27,0,1,1-10.281,0,7.273,7.273,0,0,1,10.281,0ZM35.143.7a12.126,12.126,0,1,1-.015,0h.015Zm5.133,6.976a7.271,7.271,0,1,1-10.281,0,7.273,7.273,0,0,1,10.281,0Z" transform="translate(1185.086 1083.298)" fill="#fff" fill-rule="evenodd"></path></g><g id="Group_1642" data-name="Group 1642"><circle id="Ellipse_43" data-name="Ellipse 43" cx="30.5" cy="30.5" r="30.5" transform="translate(1134 1287)" fill="#2d8cff"></circle><path id="Icon_material-apps" data-name="Icon material-apps" d="M6,12h6V6H6Zm9,18h6V24H15ZM6,30h6V24H6Zm0-9h6V15H6Zm9,0h6V15H15ZM24,6v6h6V6Zm-9,6h6V6H15Zm9,9h6V15H24Zm0,9h6V24H24Z" transform="translate(1147 1301)" fill="#fff"></path></g><g id="Group_1643" data-name="Group 1643"><circle id="Ellipse_42" data-name="Ellipse 42" cx="30.5" cy="30.5" r="30.5" transform="translate(1007 1174)" fill="#2d8cff"></circle><path id="Icon_awesome-ticket-alt" data-name="Icon awesome-ticket-alt" d="M7.706,10.279H26.971V21.838H7.706Zm24.081,5.779a2.89,2.89,0,0,0,2.89,2.89v5.779a2.89,2.89,0,0,1-2.89,2.89H2.89A2.89,2.89,0,0,1,0,24.728V18.949a2.89,2.89,0,1,0,0-5.779V7.39A2.89,2.89,0,0,1,2.89,4.5h28.9a2.89,2.89,0,0,1,2.89,2.89v5.779A2.89,2.89,0,0,0,31.787,16.059ZM28.9,9.8a1.445,1.445,0,0,0-1.445-1.445H7.224A1.445,1.445,0,0,0,5.779,9.8V22.32a1.445,1.445,0,0,0,1.445,1.445H27.452A1.445,1.445,0,0,0,28.9,22.32Z" transform="translate(1020 1188.5)" fill="#fff"></path></g><g id="Group_1644" data-name="Group 1644"><circle id="Ellipse_41" data-name="Ellipse 41" cx="30.5" cy="30.5" r="30.5" transform="translate(991 1002)" fill="#2d8cff"></circle><g id="Group_615" data-name="Group 615" transform="translate(1000.639 1012.366)"><g id="Group_618" data-name="Group 618" transform="translate(3.361 2.931)"><g id="Group_617" data-name="Group 617" transform="translate(0 0)" clip-path="url(#clip-path)"><path id="Path_9410" data-name="Path 9410" d="M57.624,40.76h-.011a2.62,2.62,0,1,1,.011,0" transform="translate(-28.959 -18.705)" fill="#fff"></path><path id="Path_9411" data-name="Path 9411" d="M27.059,24.99h.573l-.009,3.263h-.564Z" transform="translate(-14.244 -13.155)" fill="#fff"></path><rect id="Rectangle_483" data-name="Rectangle 483" width="0.521" height="3.258" transform="translate(20.402 11.84)" fill="#fff"></rect><path id="Path_9412" data-name="Path 9412" d="M31.139,0H16.657A3.355,3.355,0,0,0,13.3,3.358v8.378A3.359,3.359,0,0,0,16.657,15.1h.668v-4.22a3.329,3.329,0,0,1,.8-2.216,2.951,2.951,0,0,1,2.25-1.037h7.061a2.929,2.929,0,0,1,2.25,1.047,3.314,3.314,0,0,1,.8,2.207V15.1h.663A3.363,3.363,0,0,0,34.5,11.735V3.358A3.359,3.359,0,0,0,31.139,0M23.884,7.146h-.014a2.621,2.621,0,1,1,.014,0" transform="translate(-7.001 0)" fill="#fff"></path><path id="Path_9413" data-name="Path 9413" d="M10.945,42.081h-.011a2.62,2.62,0,1,1,.011,0" transform="translate(-4.386 -19.4)" fill="#fff"></path><path id="Path_9414" data-name="Path 9414" d="M13.152,52.161v4.22H10.6V53.122h-.521V56.38H3.055l.009-3.263H2.491V56.38H0v-4.22a3.329,3.329,0,0,1,.8-2.216,2.951,2.951,0,0,1,2.25-1.037h7.061a2.928,2.928,0,0,1,2.25,1.047,3.314,3.314,0,0,1,.8,2.207" transform="translate(0 -25.746)" fill="#fff"></path><path id="Path_9415" data-name="Path 9415" d="M34.505,48.246h-.011a2.62,2.62,0,1,1,.011,0" transform="translate(-16.788 -22.646)" fill="#fff"></path><path id="Path_9416" data-name="Path 9416" d="M36.712,58.326v4.22H34.159V59.287h-.521v3.258H26.615l.009-3.263h-.573v3.263H23.56v-4.22a3.329,3.329,0,0,1,.8-2.216,2.951,2.951,0,0,1,2.25-1.037h7.061a2.929,2.929,0,0,1,2.25,1.047,3.314,3.314,0,0,1,.8,2.207" transform="translate(-12.402 -28.991)" fill="#fff"></path><path id="Path_9417" data-name="Path 9417" d="M59.831,50.84v4.22H57.278V51.8h-.521v3.258H49.734l.009-3.263H49.17v3.263H46.679V50.84a3.329,3.329,0,0,1,.8-2.216,2.951,2.951,0,0,1,2.25-1.037h7.061a2.929,2.929,0,0,1,2.25,1.047,3.314,3.314,0,0,1,.8,2.207" transform="translate(-24.573 -25.05)" fill="#fff"></path></g></g></g></g><g id="Group_1638" data-name="Group 1638"><circle id="Ellipse_38" data-name="Ellipse 38" cx="30.5" cy="30.5" r="30.5" transform="translate(1362 874)" fill="#2d8cff"></circle><path id="Icon_awesome-phone-alt" data-name="Icon awesome-phone-alt" d="M23.316,16.96l-5.25-2.25a1.125,1.125,0,0,0-1.313.323l-2.325,2.841A17.375,17.375,0,0,1,6.122,9.568L8.963,7.243A1.122,1.122,0,0,0,9.286,5.93L7.036.68A1.133,1.133,0,0,0,5.747.029L.872,1.154A1.125,1.125,0,0,0,0,2.25,21.748,21.748,0,0,0,21.751,24a1.125,1.125,0,0,0,1.1-.872l1.125-4.875A1.139,1.139,0,0,0,23.316,16.96Z" transform="translate(1381 892.999)" fill="#fff"></path></g><g id="Group_1645" data-name="Group 1645"><circle id="Ellipse_40" data-name="Ellipse 40" cx="30.5" cy="30.5" r="30.5" transform="translate(1081 874)" fill="#2d8cff"></circle><path id="Icon_material-chat-bubble" data-name="Icon material-chat-bubble" d="M27.466,3H5.718A2.726,2.726,0,0,0,3,5.718V30.185l5.437-5.437H27.466a2.726,2.726,0,0,0,2.718-2.718V5.718A2.726,2.726,0,0,0,27.466,3Z" transform="translate(1093.6 890)" fill="#fff"></path></g><g id="Group_1637" data-name="Group 1637"><circle id="Ellipse_37" data-name="Ellipse 37" cx="30.5" cy="30.5" r="30.5" transform="translate(1220 831)" fill="#2d8cff"></circle><path id="Path_9399" data-name="Path 9399" d="M31.683,10.8a1.2,1.2,0,0,0-.654.19l-6.082,3.839a.6.6,0,0,0-.281.506v5.344a.6.6,0,0,0,.281.506l6.082,3.839a1.264,1.264,0,0,0,.654.19h1.463a.6.6,0,0,0,.6-.6V11.4a.6.6,0,0,0-.6-.6Z" transform="translate(1233.5 844)" fill="#fff"></path><path id="Path_9400" data-name="Path 9400" d="M19.23,27H5.871A3.633,3.633,0,0,1,2.25,23.386V12.614A3.627,3.627,0,0,1,5.864,9H19.223a3.627,3.627,0,0,1,3.614,3.614V23.379A3.617,3.617,0,0,1,19.23,27Z" transform="translate(1233.5 844)" fill="#fff"></path></g><g id="Group_1639" data-name="Group 1639"><circle id="Ellipse_39" data-name="Ellipse 39" cx="30.5" cy="30.5" r="30.5" transform="translate(1438 1002)" fill="#2d8cff"></circle><path id="Icon_awesome-code" data-name="Icon awesome-code" d="M14.949,27.418l-3.27-.949a.644.644,0,0,1-.44-.8L18.557.467a.644.644,0,0,1,.8-.44l3.27.949a.644.644,0,0,1,.44.8l-7.317,25.2a.642.642,0,0,1-.8.44ZM8.839,21.4l2.332-2.487A.643.643,0,0,0,11.127,18L6.271,13.723l4.856-4.272a.639.639,0,0,0,.043-.922L8.839,6.042a.644.644,0,0,0-.911-.027L.2,13.251a.639.639,0,0,0,0,.938l7.724,7.242a.639.639,0,0,0,.911-.027Zm17.539.032L34.1,14.195a.639.639,0,0,0,0-.938L26.377,6.009a.649.649,0,0,0-.911.027L23.134,8.523a.643.643,0,0,0,.043.922l4.856,4.277L23.177,18a.639.639,0,0,0-.043.922L25.466,21.4a.644.644,0,0,0,.911.032Z" transform="translate(1452.502 1018.553)" fill="#fff"></path></g><g id="Group_1640" data-name="Group 1640"><circle id="Ellipse_45" data-name="Ellipse 45" cx="30.5" cy="30.5" r="30.5" transform="translate(1416 1174)" fill="#2d8cff"></circle><path id="Icon_ionic-md-home" data-name="Icon ionic-md-home" d="M15.458,33.5V23.833h7.25V33.5h7.371V19h4.712L19.083,4.5,3.375,19H8.087V33.5Z" transform="translate(1426.555 1184.501)" fill="#fff"></path></g></g></svg>