<svg xmlns="http://www.w3.org/2000/svg" xmlns:xlink="http://www.w3.org/1999/xlink" width="358" height="358" viewBox="0 0 358 358">
  <defs>
    <linearGradient id="linear-gradient" x1="1" x2="0" y2="1" gradientUnits="objectBoundingBox">
      <stop offset="0" stop-color="#2bc5e1"/>
      <stop offset="1" stop-color="#3b9ad1"/>
    </linearGradient>
    <clipPath id="clip-path">
      <circle id="Ellipse_1050" data-name="Ellipse 1050" cx="27.625" cy="27.625" r="27.625" transform="translate(0 0)" fill="#3c4252"/>
    </clipPath>
    <linearGradient id="linear-gradient-2" x1="0.5" y1="0" x2="0.5" y2="1.125" xlink:href="#linear-gradient"/>
    <clipPath id="clip-path-2">
      <path id="Path_9267" data-name="Path 9267" d="M33.8,17.634,41.6,11.929c.682-.556,1.2-.426,1.2.6v17.4c0,1.153-.649,1.021-1.2.6L33.8,24.823ZM7.372,12.572V25.543a5.312,5.312,0,0,0,5.336,5.285H31.625a.967.967,0,0,0,.97-.961V16.9a5.312,5.312,0,0,0-5.336-5.285H8.342A.967.967,0,0,0,7.372,12.572Z" transform="translate(-7.372 -11.604)"/>
    </clipPath>
    <linearGradient id="linear-gradient-3" x1="0" y1="0" x2="1" y2="1" xlink:href="#linear-gradient"/>
    <linearGradient id="linear-gradient-5" x1="0.482" y1="-0.876" x2="0.451" y2="1" xlink:href="#linear-gradient"/>
  </defs>
  <g id="Zoom_-_Security_Guide" data-name="Zoom - Security Guide" transform="translate(-26.001 39.355)">
    <rect id="Rectangle_2662" data-name="Rectangle 2662" width="358" height="358" transform="translate(26.001 -39.355)" fill="#fff" opacity="0"/>
    <path id="Path_6476" data-name="Path 6476" d="M185,48.408c22.95-.115,44.811-1.184,65.683-2.355s41.551-2.466,63.95-3.086c14.409-.4,30.887-.457,42.5.66,11.174,1.073,14.783,2.927,16.722,4.644,1.461,1.293,2.319,2.652-1.679,3.865-2.779.84-7.711,1.547-11.124,2.351-11.865,2.8-3.485,6.255,9.384,8.99,6.02,1.283,13.031,2.507,17.685,3.873s6.808,2.93,2.737,4.323c-4.039,1.381-13.658,2.416-24.081,3.148-21.167,1.482-46.11,1.906-70.432,2.146-53.84.531-107.969.3-161.952.071-19.979-.086-40.043-.172-59.7-.618-10.911-.247-22.177-.64-30.1-1.589-10.059-1.2-12.552-3.244-5.81-4.756,11.3-2.533,42.565-3.162,50.466-5.881,4.35-1.5-.117-3.163-6.438-4.551-13.56-2.978-36.289-5.589-37.486-8.992-.824-2.337,10.1-4.678,27-5.784,17.71-1.159,42.264-1.013,55.329.905C141.091,47.749,164.732,48.51,185,48.408Z" transform="translate(-9 168.789)" fill="#d6eafb"/>
    <g id="Group_1658" data-name="Group 1658" transform="translate(168.615 43.32)">
      <rect id="Rectangle_2905" data-name="Rectangle 2905" width="197.76" height="126.654" transform="translate(-0.894 1.698)" fill="#dbdcdd"/>
      <rect id="Rectangle_2914" data-name="Rectangle 2914" width="197.76" height="126.654" transform="translate(-0.1 0.112)" fill="#fff"/>
      <rect id="Rectangle_2906" data-name="Rectangle 2906" width="186.45" height="103.276" transform="translate(5.554 15.998)" fill="#fff"/>
      <path id="Rectangle_2907" data-name="Rectangle 2907" d="M2,0H195.76a2,2,0,0,1,2,2V8.4a0,0,0,0,1,0,0H0a0,0,0,0,1,0,0V2A2,2,0,0,1,2,0Z" transform="translate(-0.185)" fill="#3c4252"/>
      <circle id="Ellipse_1033" data-name="Ellipse 1033" cx="1.557" cy="1.557" r="1.557" transform="translate(4.501 2.738)" fill="#fff"/>
      <circle id="Ellipse_1034" data-name="Ellipse 1034" cx="1.557" cy="1.557" r="1.557" transform="translate(10.412 2.738)" fill="#fff"/>
      <circle id="Ellipse_1035" data-name="Ellipse 1035" cx="1.557" cy="1.557" r="1.557" transform="translate(16.323 2.738)" fill="#fff"/>
      <g id="Group_1677" data-name="Group 1677" transform="translate(19.437 23.989)">
        <rect id="Rectangle_2908" data-name="Rectangle 2908" width="34.58" height="34.58" rx="17.29" transform="translate(0)" fill="#f1f3f6"/>
        <circle id="Ellipse_1036" data-name="Ellipse 1036" cx="4.814" cy="4.814" r="4.814" transform="translate(10.494 9.054)" fill="#ffb9b9"/>
        <path id="Path_9225" data-name="Path 9225" d="M358.421,375.751s.6,2.858.6,3.159,2.858,1.655,2.858,1.655l2.557-.451.9-2.708s-1.5-2.256-1.5-3.159Z" transform="translate(-344.994 -358.199)" fill="#ffb9b9"/>
        <path id="Path_9226" data-name="Path 9226" d="M341.43,330.777s1.528-3.311,4.457-2.547,4.585,1.91,4.712,3.057a16.347,16.347,0,0,1-.064,2.866s-.318-2.356-2.356-1.847a18.176,18.176,0,0,1-5.222.127l-.509,4.585s-.573-.828-1.21-.318S339.392,331.8,341.43,330.777Z" transform="translate(-330.296 -320.789)" fill="#2f2e41"/>
        <path id="Path_9227" data-name="Path 9227" d="M341.766,398.04l-1.2-5.416a9.849,9.849,0,0,0-2.106-3.308l-7.418-2.609h0a3.115,3.115,0,0,1-2.206,2.911c-2.257.75-3.811-1.779-3.811-1.779l-6.271,4.785a6.117,6.117,0,0,0-1.8,4.815l-.208,1.758h25.606Z" transform="translate(-311.191 -368.303)" fill="#3f536e"/>
      </g>
      <g id="Group_1674" data-name="Group 1674" transform="translate(144.772 26.083)">
        <rect id="Rectangle_2910" data-name="Rectangle 2910" width="29.303" height="29.303" rx="14.651" transform="translate(0)" fill="#f1f3f6"/>
        <path id="Path_9231" data-name="Path 9231" d="M783.81,354.973h-8.293l-.457-4.506-.027-.274-.056-.543-.229-2.271-.287,2.44-.606,5.155h-1.507l.056-1.6.056-1.627.024-.656.309-8.918a6.369,6.369,0,0,1,1.271-3.925,4.96,4.96,0,0,1,4.006-1.938,5.1,5.1,0,0,1,4.074,2.008,6.452,6.452,0,0,1,1.332,3.985l.143,5.4Z" transform="translate(-764.524 -327.732)" fill="#2f2e41"/>
        <circle id="Ellipse_1040" data-name="Ellipse 1040" cx="3.648" cy="3.648" r="3.648" transform="translate(9.899 10.331)" fill="#fbbebe"/>
        <path id="Path_9232" data-name="Path 9232" d="M789.844,384.93s1.042,3.517,0,4.56a12.051,12.051,0,0,0-1.3,1.433l3,4.039,5.211-6.384s-3.648-1.042-2.736-3.908Z" transform="translate(-778.122 -368.346)" fill="#fbbebe"/>
        <path id="Path_9233" data-name="Path 9233" d="M658.85,257.223h-3.077l-.051-.527-.047-.487,1.417-.178,1.709-.213.019.547Z" transform="translate(-635.874 -229.982)" fill="#fbbebe"/>
        <path id="Path_9234" data-name="Path 9234" d="M779.548,413.762s-.521-3.257-.912-4.56-.782-1.3-.782-1.3h0a3.788,3.788,0,0,0-2.4-.529c-.583.006-1.032.058-1.032.058l-4.647,4.9-2.34-3.111v0a3.405,3.405,0,0,0-.623.107,4.123,4.123,0,0,0-.516.168,7.08,7.08,0,0,0-1.976,1.268h0c-.336.3-.535.526-.535.526a15.258,15.258,0,0,0-1.157,3.361h14.89l.034-.67h0Z" transform="translate(-756.362 -387.407)" fill="#3f536e"/>
        <path id="Path_9235" data-name="Path 9235" d="M784.17,349.319c2.356-1.27,3.324-1.216,6.253,0l.782-1.9a1.354,1.354,0,0,0-1.352-1.353H784.61a1.354,1.354,0,0,0-1.353,1.353Z" transform="translate(-773.685 -335.926)" fill="#2f2e41"/>
      </g>
      <path id="Path_9239" data-name="Path 9239" d="M427.5,697.148q-.116,0-.232.007l.111-.208C427.418,697.012,427.457,697.08,427.5,697.148Z" transform="translate(-370.348 -573.779)" fill="#ffb8b8"/>
      <g id="Group_1676" data-name="Group 1676" transform="translate(28.071 80.611)">
        <rect id="Rectangle_2911" data-name="Rectangle 2911" width="28.842" height="28.842" rx="14.421" fill="#f1f3f6"/>
        <path id="Path_9236" data-name="Path 9236" d="M364.784,521.894a1.051,1.051,0,0,0-.609.136,1.589,1.589,0,0,0-.412.544,6.507,6.507,0,0,1-1.772,2c-.527.386-1.2.867-1.106,1.578a2.136,2.136,0,0,0,.257.666c.486.981,1.812,1.739,1.681,2.858.483-.808-.163-1.208.32-2.016.23-.385.629-.819.976-.578.116.081.193.226.314.3.289.17.6-.154.851-.384.881-.791,2.134-.584,3.231-.337a2.02,2.02,0,0,1,1.392.764c.4.651-.382,1.353-.581,2.089a.4.4,0,0,0,.43.5c.329-.032.719-.059.738-.2.414.015.921-.032,1.1-.463a1.815,1.815,0,0,0,.085-.527,10.843,10.843,0,0,1,.576-2.074,2.8,2.8,0,0,0-.051-2.108,2.439,2.439,0,0,0-.45-.547C369.8,522.2,367.239,521.892,364.784,521.894Z" transform="translate(-351.937 -514.964)" fill="#2f2e41"/>
        <path id="Path_9237" data-name="Path 9237" d="M366.96,571.237s.424,3.534-1.131,3.817,1.414,5.089,1.414,5.089l7.068.848-1.7-5.654s-1.131-.424-.424-3.251S366.96,571.237,366.96,571.237Z" transform="translate(-355.65 -555.109)" fill="#9f616a"/>
        <circle id="Ellipse_1041" data-name="Ellipse 1041" cx="4.241" cy="4.241" r="4.241" transform="translate(10.249 9.979)" fill="#9f616a"/>
        <path id="Path_9238" data-name="Path 9238" d="M350.9,607.425c.75-2.949,1.785-6.921,1.785-6.921s.4.082,1.037.175a24.539,24.539,0,0,0,2.8.254,10.171,10.171,0,0,0,3.436-.384,3.215,3.215,0,0,0,1.014-.541,1.955,1.955,0,0,0,.34-.352c1.7-2.262,2.4,6.36,2.4,6.36l.131,1.409Z" transform="translate(-343.707 -578.792)" fill="url(#linear-gradient)"/>
        <path id="Path_9240" data-name="Path 9240" d="M369.384,528.231a.964.964,0,0,0-.5.1,1.156,1.156,0,0,0-.335.385,4.886,4.886,0,0,1-1.443,1.415c-.429.273-.974.613-.9,1.116a1.4,1.4,0,0,0,.209.471,3.7,3.7,0,0,1,.45,2.309l1.179-1.713c.187-.272.512-.579.795-.408.095.057.157.16.255.21.235.12.485-.109.693-.271a3.254,3.254,0,0,1,2.63-.238,1.723,1.723,0,0,1,1.133.54c.414.581-.018,1.421.223,2.092a.617.617,0,0,0,.255-.407c.337.01.75-.023.894-.327a1.129,1.129,0,0,0,.069-.373,6.9,6.9,0,0,1,.469-1.466,1.741,1.741,0,0,0-.042-1.49,1.806,1.806,0,0,0-.367-.387C373.47,528.449,371.383,528.229,369.384,528.231Z" transform="translate(-356.331 -520.191)" fill="#2f2e41"/>
        <path id="Path_9241" data-name="Path 9241" d="M328.4,592.041a9.85,9.85,0,0,1-1.568-2.789v0s-1.542-.883-1.966-.035-4.382,2.968-4.806,2.968l-.01,0a4.64,4.64,0,0,0-2.816,3.672,21.33,21.33,0,0,0-.235,2.963h11.527c.119-1.249.208-2.418.243-3.427a9.434,9.434,0,0,0-.212-3.064A.893.893,0,0,0,328.4,592.041Z" transform="translate(-315.747 -570.188)" fill="#424153"/>
        <path id="Path_9242" data-name="Path 9242" d="M408.616,596.037c-.007-.033-.012-.061-.018-.088a.652.652,0,0,0-.095-.21.015.015,0,0,1,0-.005c-.816-1.265-6.068-3.007-6.068-3.007l-.2.678s.025.669.06,1.742c.035,1,.077,2.36.117,3.849.028.972.053,2,.075,3.026h7.855A45.864,45.864,0,0,0,408.616,596.037Z" transform="translate(-386.052 -573.389)" fill="#424153"/>
      </g>
      <g id="Group_1675" data-name="Group 1675" transform="translate(140.275 84.703)">
        <rect id="Rectangle_2913" data-name="Rectangle 2913" width="28.567" height="28.567" rx="14.284" transform="translate(0)" fill="#f1f3f6"/>
        <circle id="Ellipse_1042" data-name="Ellipse 1042" cx="4.695" cy="4.695" r="4.695" transform="translate(12.219 6.757)" fill="#ffb8b8"/>
        <path id="Path_9244" data-name="Path 9244" d="M616.222,387.44l-.391,8.02-6.064-3.521.782-4.5Z" transform="translate(-596.373 -373.25)" fill="#ffb8b8"/>
        <path id="Path_9245" data-name="Path 9245" d="M616.693,410.092l-.4,3.411h-3.184l-3.455-6.639L608.682,405l-.467-.3.541-.123.426.308,4.771,3.457.765-2.3.02-.059.192-.578Z" transform="translate(-595.084 -387.49)" fill="#33afd8"/>
        <path id="Path_9246" data-name="Path 9246" d="M794.507,520.142a3.147,3.147,0,0,1,3.912-2.348l-.391.2s3.13-.391,2.739,1.369c0,0,2.543,1.565,1.956,3.326a19.906,19.906,0,0,0-.782,3.13l-.587-.587s-.587-3.912-4.108-3.521c-2.641.293-3.717,1.54-3.992,2.439a7.938,7.938,0,0,1-.483,1.23l-.22.048S791.377,521.12,794.507,520.142Z" transform="translate(-780.43 -513.287)" fill="#2f2e41"/>
        <path id="Path_9247" data-name="Path 9247" d="M772.476,595.092l0,0-2.493-2.316v-1.564l-1.925-1.517-.029.922-.2,6.268-3.2-4.4-2.157-2.966-.388-.531.094-.5-1.2,1.353-4.325,3.245-.371.278a11.785,11.785,0,0,0-1.173,1.369c-.116.173-.646,1.556-1.335,3.411h19.256c.047-.978.076-1.657.076-1.846A1.187,1.187,0,0,0,772.476,595.092Z" transform="translate(-748.371 -572.13)" fill="#3c4252"/>
      </g>
    </g>
    <g id="Group_1671" data-name="Group 1671" transform="translate(235.732 76.839)">
      <g id="Group_1667" data-name="Group 1667" transform="translate(3.189 2.7)" clip-path="url(#clip-path)">
        <path id="Path_9265" data-name="Path 9265" d="M1.569,1.412H59.821V59.665H1.569Z" transform="translate(-3.07 -2.913)" fill="url(#linear-gradient-2)"/>
      </g>
      <g id="Group_1668" data-name="Group 1668" transform="translate(12.797 20.709)" clip-path="url(#clip-path-2)">
        <path id="Path_9266" data-name="Path 9266" d="M6.588,10.823H45.023v22.22H6.588Z" transform="translate(-8.089 -12.318)" fill="#fff"/>
      </g>
    </g>
    <g id="Group_1679" data-name="Group 1679" transform="translate(64.205 66.677)">
      <path id="Path_9272" data-name="Path 9272" d="M800.078,637.29l-1.854-7.313a94.964,94.964,0,0,0-10.075-3.615l-.234,3.4-.949-3.744c-4.246-1.213-7.134-1.747-7.134-1.747s3.9,14.837,12.085,26.18l9.536,1.675-7.408,1.068a38.413,38.413,0,0,0,3.314,3.512c11.9,11.05,25.165,16.12,29.616,11.324s-1.59-17.642-13.495-28.692A50.579,50.579,0,0,0,800.512,631Z" transform="translate(-779.831 -507.836)" fill="url(#linear-gradient-3)"/>
      <path id="Path_9273" data-name="Path 9273" d="M787.246,598.329l2.193-7.219a94.959,94.959,0,0,0-6.756-8.3l-1.957,2.789,1.123-3.7c-3.008-3.233-5.2-5.183-5.2-5.183s-4.329,14.718-3.187,28.658l7.3,6.363-6.894-2.915a38.442,38.442,0,0,0,1.021,4.719c4.479,15.613,13.209,26.807,19.5,25s7.758-15.924,3.279-31.537a50.583,50.583,0,0,0-6.791-13.841Z" transform="translate(-749.364 -476.817)" fill="url(#linear-gradient-3)"/>
      <path id="Path_9274" data-name="Path 9274" d="M556.083,196.231l-19.233.478-2.589-22.934h21.823Z" transform="translate(-487.238 -165.128)" fill="#2f2e41"/>
      <path id="Path_9275" data-name="Path 9275" d="M708.333,463.477l-7.021,48.677s-6.085,17.318-6.553,25.742l-1.872,12.169,8.425,1.872,8.893-34.167,12.169-30.891-1.4,35.571-2.808,29.019,8.425,1.4,5.149-36.975,5.617-27.146s4.212-23.4-2.34-25.742Z" transform="translate(-659.848 -402.643)" fill="#3c4252"/>
      <path id="Path_9276" data-name="Path 9276" d="M792.31,704.8l-.937,11.392s10.026,5.8,6.809,6.92-7.62-.322-8.52-.577c-.951-.27-2.727-.7-4.07-1.018a2.985,2.985,0,0,1-2.31-2.688l0-.042c-.081-1.4,3.082-13.584,3.082-13.584Z" transform="translate(-751.409 -560.368)" fill="#3c4252"/>
      <path id="Path_9277" data-name="Path 9277" d="M710.373,705.623l.789,10.893s11.417,4.242,8.474,5.959-7.541,1.14-8.474,1.061c-1.72-.145-6-.289-6-.289s-.791.685-1.139-.675.463-13.514.463-13.514Z" transform="translate(-645.126 -560.903)" fill="#3c4252"/>
      <ellipse id="Ellipse_1051" data-name="Ellipse 1051" cx="8.893" cy="8.893" rx="8.893" ry="8.893" transform="translate(49.421 3.733)" fill="#ffb8b8"/>
      <path id="Path_9278" data-name="Path 9278" d="M558.343,200.025l-1.872,10.3,7.957,3.744,1.872-13.105Z" transform="translate(-505.178 -182.251)" fill="#ffb8b8"/>
      <path id="Path_9279" data-name="Path 9279" d="M717.1,474.362l9.829,7.021s4.212,10.765,7.489,8.893-3.744-11.233-3.744-11.233l-7.957-7.957Z" transform="translate(-664.871 -407.912)" fill="#ffb8b8"/>
      <path id="Path_9280" data-name="Path 9280" d="M691.209,471.086l.936,5.617s-2.34,11.7-5.148,9.361.936-9.829.936-9.829l-.468-4.68Z" transform="translate(-610.897 -407.912)" fill="#ffb8b8"/>
      <path id="Path_9281" data-name="Path 9281" d="M717.875,360.522l-.936-3.744-5.617-2.808-1.872,2.34-6.085,1.872,7.021,37.443s23.87,1.4,24.338-2.34-4.68-14.041-4.68-14.041,1.4-5.148.936-7.957l-1.872-11.233-7.489-2.34-1.71-2.069-1.566,2.537Z" transform="translate(-659.562 -331.515)" fill="#3f536e"/>
      <path id="Path_9282" data-name="Path 9282" d="M752.036,367.022l-1.4-.936s-2.808.468-3.744,4.212,0,20.594,2.34,23.87,8.893,13.105,8.893,13.105l8.893-4.212L757.653,392.3l-2.34-13.573Z" transform="translate(-706.828 -339.419)" fill="#3f536e"/>
      <path id="Path_9283" data-name="Path 9283" d="M681.913,372.407l3.744-.936a6.338,6.338,0,0,1,3.276,4.212c.936,3.276,6.085,19.658,5.616,21.062s4.212,10.765,4.212,10.765l-6.553.468-3.744-9.829-3.744-9.829Z" transform="translate(-616.111 -342.932)" fill="#3f536e"/>
      <path id="Path_9284" data-name="Path 9284" d="M697.4,310.458c1.875-1.03,2.748-3.341,2.81-5.48s-.456-4.255-.5-6.394a4.945,4.945,0,0,1,.111-1.3,5.015,5.015,0,0,1,.717-1.485,13.86,13.86,0,0,1,11.144-6.407,4.949,4.949,0,0,1,1.886.347c.462.185.613.162.7.729a4.719,4.719,0,0,1,3.238.1,10.957,10.957,0,0,1,2.832,1.687,12.77,12.77,0,0,1,1.432,1.24c2.36,2.445,2.9,6.212,2.22,9.541-.222,1.082.844,2.127,1.727,2.791a6.413,6.413,0,0,1,2.335,2.291,9.931,9.931,0,0,1,.272,3.155,5.4,5.4,0,0,0,3.442,4.533,1.661,1.661,0,0,1-1.6.563,3.943,3.943,0,0,1-1.669-.795,9.931,9.931,0,0,1-3.7-5.493,16.114,16.114,0,0,0-.149,3.6,10.06,10.06,0,0,0,.729,3.934,5.76,5.76,0,0,0,2.652,2.92,3.127,3.127,0,0,1-3.414-.68,7.134,7.134,0,0,1-1.965-3.273,16.313,16.313,0,0,1-.786-6.192,8.84,8.84,0,0,0-1.109,6.027,9.215,9.215,0,0,0,3.126,5.425,17.954,17.954,0,0,1-8.217-2.069,4.651,4.651,0,0,1-1.685-1.3c-.816-1.131-.623-2.675-.394-4.051.181-1.088-1.179-2.661-.4-3.442a1.29,1.29,0,0,1,.865-.372,7.659,7.659,0,0,0,5.833-3.438,8.855,8.855,0,0,0,1.474-4.54,8.262,8.262,0,1,0-16.153,2.452,16.587,16.587,0,0,1,.6,2.8,21.99,21.99,0,0,0,.671,3.257c.589,2.051,1.587,4.144,3.433,5.214a5.358,5.358,0,0,1-2.042.432,12.542,12.542,0,0,1-6.851-.819A6.061,6.061,0,0,1,697.4,310.458Z" transform="translate(-654.503 -289.388)" fill="#2f2e41"/>
      <path id="Path_9285" data-name="Path 9285" d="M725.32,307.224c6.654-2.667,13.214-3.236,19.6,0v-5.376a3.5,3.5,0,0,0-3.5-3.5H728.086a2.766,2.766,0,0,0-2.766,2.766Z" transform="translate(-677.363 -295.232)" fill="#2f2e41"/>
      <ellipse id="Ellipse_1052" data-name="Ellipse 1052" cx="0.981" cy="1.569" rx="0.981" ry="1.569" transform="translate(49.047 12.182)" fill="#ffb8b8"/>
    </g>
    <path id="zoom-5" d="M118.705,9.819a7.082,7.082,0,0,1,.8,3.287l.082,1.638V26.211l.082,1.637a5.033,5.033,0,0,0,4.834,4.834l1.637.082V14.744l.082-1.638a7.142,7.142,0,0,1,.808-3.3,6.555,6.555,0,0,1,11.338.021,7.182,7.182,0,0,1,.8,3.278l.082,1.637V26.211l.082,1.637a5.014,5.014,0,0,0,4.834,4.834l1.637.082V13.105a13.106,13.106,0,0,0-22.935-8.669A13.109,13.109,0,0,0,105.7,2.246C104.421.828,101.568,0,99.93,0V32.764l1.638-.082A4.944,4.944,0,0,0,106.4,27.85l.082-1.639V14.744l.082-1.638a7.15,7.15,0,0,1,.8-3.292,6.555,6.555,0,0,1,11.337.006ZM93.493,4.8A16.381,16.381,0,1,1,81.9,0,16.382,16.382,0,0,1,93.493,4.8ZM88.86,9.431a9.829,9.829,0,1,1-13.9,0A9.83,9.83,0,0,1,88.86,9.431ZM47.518,0a16.381,16.381,0,1,1-.02,0Zm6.94,9.431a9.829,9.829,0,1,1-13.9,0A9.83,9.83,0,0,1,54.458,9.431ZM6.553,32.682A5.009,5.009,0,0,1,1.72,27.847l-.082-1.637L21.3,6.553H6.553l-1.64-.082A5.083,5.083,0,0,1,.082,1.637L0,0,24.573,0l1.638.08a4.954,4.954,0,0,1,4.833,4.835l.082,1.636L11.467,26.211H26.211l1.638.082a5.059,5.059,0,0,1,4.833,4.834l.082,1.637H8.191Z" transform="translate(193.721 197.393)" fill-rule="evenodd" fill="url(#linear-gradient-5)"/>
    <path id="zoom-5-2" data-name="zoom-5" d="M118.705,5.729c.561-.241.737-.513.8-.821l.082-.409V1.636l.082-.409C119.832.558,121.8.063,124.5.02L126.141,0V4.5l.082.409c.064.3.242.582.808.824a16.188,16.188,0,0,0,5.663.812,16.125,16.125,0,0,0,5.675-.818c.558-.241.731-.519.8-.818l.082-.409V1.636l.082-.409C139.5.555,141.455.06,144.162.02L145.8,0V4.908c0,1.807-5.868,3.272-13.106,3.272a38.333,38.333,0,0,1-9.829-1.108,38.331,38.331,0,0,1-9.829,1.108,45.06,45.06,0,0,1-7.34-.561,28.887,28.887,0,0,1-5.766.561V0l1.638.02c2.736.045,4.726.527,4.833,1.206l.082.409V4.5l.082.409c.069.308.241.581.8.822a16.168,16.168,0,0,0,5.667.814A16.15,16.15,0,0,0,118.705,5.729ZM93.493,6.982c6.4-1.6,6.4-4.187,0-5.784a56.6,56.6,0,0,0-23.167,0c-6.4,1.6-6.4,4.187,0,5.784A50.4,50.4,0,0,0,81.9,8.18a50.455,50.455,0,0,0,11.594-1.2ZM88.86,5.826c3.838-.958,3.838-2.512,0-3.471a33.963,33.963,0,0,0-13.9,0c-3.839.958-3.839,2.512,0,3.471A33.963,33.963,0,0,0,88.86,5.826ZM47.518,8.18a50.4,50.4,0,0,0,11.573-1.2c6.4-1.6,6.4-4.187,0-5.784a56.6,56.6,0,0,0-23.167,0c-6.4,1.6-6.4,4.187,0,5.784A50.4,50.4,0,0,0,47.5,8.18Zm6.94-2.355c3.838-.958,3.838-2.512,0-3.471a33.965,33.965,0,0,0-13.9,0c-3.838.958-3.838,2.512,0,3.471A33.965,33.965,0,0,0,54.458,5.826ZM6.553.02C3.832.065,1.882.553,1.72,1.227l-.082.409L21.3,6.544H6.553l-1.64.02C2.233,6.6.294,7.106.082,7.772L0,8.18H24.573l1.638-.02c2.714-.036,4.7-.528,4.833-1.207l.082-.409L11.467,1.636H26.211l1.638-.02c2.7-.042,4.614-.534,4.833-1.207L32.764,0H8.191Z" transform="translate(193.721 230.157)" fill="#3c4252" fill-rule="evenodd" opacity="0.07"/>
  </g>
</svg>
